<mxfile host="Electron" modified="2025-10-07T19:29:31.096Z" agent="Mozilla/5.0 (Windows NT 10.0; Win64; x64) AppleWebKit/537.36 (KHTML, like Gecko) draw.io/22.1.16 Chrome/120.0.6099.109 Electron/28.1.0 Safari/537.36" etag="osdXcbULv-TfwaY8Ggrj" version="22.1.16" type="device">
  <diagram name="Page 1" id="Page-1">
    <mxGraphModel dx="1084" dy="546" grid="1" gridSize="10" guides="1" tooltips="1" connect="1" arrows="1" fold="1" page="1" pageScale="1" pageWidth="889" pageHeight="380" math="0" shadow="0">
      <root>
        <mxCell id="0" />
        <mxCell id="1" parent="0" />
        <mxCell id="QGvBPcfqkOfmn8XZEpkV-155" value="" style="rounded=0;whiteSpace=wrap;html=1;fillColor=none;dashed=1;dashPattern=8 8;" parent="1" vertex="1">
          <mxGeometry x="20" y="390" width="850" height="360" as="geometry" />
        </mxCell>
        <mxCell id="QGvBPcfqkOfmn8XZEpkV-156" value="" style="rounded=0;whiteSpace=wrap;html=1;points=[];fillColor=#FFE599;fillOpacity=20;" parent="1" vertex="1">
          <mxGeometry x="70" y="430" width="50" height="40" as="geometry" />
        </mxCell>
        <mxCell id="QGvBPcfqkOfmn8XZEpkV-157" value="" style="rounded=0;whiteSpace=wrap;html=1;points=[];fillColor=#FFE599;fillOpacity=20;" parent="1" vertex="1">
          <mxGeometry x="120" y="430" width="50" height="40" as="geometry" />
        </mxCell>
        <mxCell id="QGvBPcfqkOfmn8XZEpkV-158" value="" style="rounded=0;whiteSpace=wrap;html=1;points=[];fillColor=#FFE599;fillOpacity=20;" parent="1" vertex="1">
          <mxGeometry x="170" y="430" width="50" height="40" as="geometry" />
        </mxCell>
        <mxCell id="QGvBPcfqkOfmn8XZEpkV-159" value="" style="rounded=0;whiteSpace=wrap;html=1;points=[];fillColor=#FFE599;fillOpacity=20;" parent="1" vertex="1">
          <mxGeometry x="220" y="430" width="50" height="40" as="geometry" />
        </mxCell>
        <mxCell id="QGvBPcfqkOfmn8XZEpkV-160" value="" style="rounded=0;whiteSpace=wrap;html=1;points=[];fillColor=#FFE599;fillOpacity=20;" parent="1" vertex="1">
          <mxGeometry x="270" y="430" width="50" height="40" as="geometry" />
        </mxCell>
        <mxCell id="QGvBPcfqkOfmn8XZEpkV-161" value="" style="rounded=0;whiteSpace=wrap;html=1;points=[];fillColor=#FFE599;fillOpacity=20;" parent="1" vertex="1">
          <mxGeometry x="320" y="430" width="50" height="40" as="geometry" />
        </mxCell>
        <mxCell id="QGvBPcfqkOfmn8XZEpkV-162" value="" style="rounded=0;whiteSpace=wrap;html=1;points=[];fillColor=#FFE599;fillOpacity=20;" parent="1" vertex="1">
          <mxGeometry x="370" y="430" width="50" height="40" as="geometry" />
        </mxCell>
        <mxCell id="QGvBPcfqkOfmn8XZEpkV-163" value="" style="rounded=0;whiteSpace=wrap;html=1;points=[];fillColor=#FFE599;fillOpacity=20;" parent="1" vertex="1">
          <mxGeometry x="420" y="430" width="50" height="40" as="geometry" />
        </mxCell>
        <mxCell id="QGvBPcfqkOfmn8XZEpkV-164" value="" style="rounded=0;whiteSpace=wrap;html=1;points=[];fillColor=#FFE599;fillOpacity=20;" parent="1" vertex="1">
          <mxGeometry x="470" y="430" width="50" height="40" as="geometry" />
        </mxCell>
        <mxCell id="QGvBPcfqkOfmn8XZEpkV-165" value="" style="rounded=0;whiteSpace=wrap;html=1;points=[];fillColor=#FFE599;fillOpacity=20;" parent="1" vertex="1">
          <mxGeometry x="520" y="430" width="50" height="40" as="geometry" />
        </mxCell>
        <mxCell id="QGvBPcfqkOfmn8XZEpkV-166" value="" style="rounded=0;whiteSpace=wrap;html=1;points=[];fillColor=#FFE599;fillOpacity=20;" parent="1" vertex="1">
          <mxGeometry x="570" y="430" width="50" height="40" as="geometry" />
        </mxCell>
        <mxCell id="QGvBPcfqkOfmn8XZEpkV-167" value="" style="rounded=0;whiteSpace=wrap;html=1;points=[];fillColor=#FFE599;fillOpacity=20;" parent="1" vertex="1">
          <mxGeometry x="620" y="430" width="50" height="40" as="geometry" />
        </mxCell>
        <mxCell id="QGvBPcfqkOfmn8XZEpkV-168" value="" style="rounded=0;whiteSpace=wrap;html=1;points=[];fillColor=#FFE599;fillOpacity=20;" parent="1" vertex="1">
          <mxGeometry x="670" y="430" width="50" height="40" as="geometry" />
        </mxCell>
        <mxCell id="QGvBPcfqkOfmn8XZEpkV-169" value="" style="rounded=0;whiteSpace=wrap;html=1;points=[];fillColor=#FFE599;fillOpacity=20;" parent="1" vertex="1">
          <mxGeometry x="720" y="430" width="50" height="40" as="geometry" />
        </mxCell>
        <mxCell id="QGvBPcfqkOfmn8XZEpkV-170" value="" style="rounded=0;whiteSpace=wrap;html=1;points=[];fillColor=#FFE599;fillOpacity=20;" parent="1" vertex="1">
          <mxGeometry x="770" y="430" width="50" height="40" as="geometry" />
        </mxCell>
        <mxCell id="QGvBPcfqkOfmn8XZEpkV-171" value="" style="rounded=0;whiteSpace=wrap;html=1;points=[];fillColor=#FFE599;fillOpacity=20;" parent="1" vertex="1">
          <mxGeometry x="820" y="430" width="50" height="40" as="geometry" />
        </mxCell>
        <mxCell id="QGvBPcfqkOfmn8XZEpkV-172" value="" style="rounded=0;whiteSpace=wrap;html=1;points=[];fillColor=#FFE599;fillOpacity=20;" parent="1" vertex="1">
          <mxGeometry x="70" y="470" width="50" height="40" as="geometry" />
        </mxCell>
        <mxCell id="QGvBPcfqkOfmn8XZEpkV-173" value="" style="rounded=0;whiteSpace=wrap;html=1;points=[];fillColor=#FFE599;fillOpacity=20;" parent="1" vertex="1">
          <mxGeometry x="120" y="470" width="50" height="40" as="geometry" />
        </mxCell>
        <mxCell id="QGvBPcfqkOfmn8XZEpkV-174" value="" style="rounded=0;whiteSpace=wrap;html=1;points=[];fillColor=#FFE599;fillOpacity=20;" parent="1" vertex="1">
          <mxGeometry x="170" y="470" width="50" height="40" as="geometry" />
        </mxCell>
        <mxCell id="QGvBPcfqkOfmn8XZEpkV-175" value="" style="rounded=0;whiteSpace=wrap;html=1;points=[];fillColor=#FFE599;fillOpacity=20;" parent="1" vertex="1">
          <mxGeometry x="220" y="470" width="50" height="40" as="geometry" />
        </mxCell>
        <mxCell id="QGvBPcfqkOfmn8XZEpkV-176" value="" style="rounded=0;whiteSpace=wrap;html=1;points=[];fillColor=#FFE599;fillOpacity=20;" parent="1" vertex="1">
          <mxGeometry x="270" y="470" width="50" height="40" as="geometry" />
        </mxCell>
        <mxCell id="QGvBPcfqkOfmn8XZEpkV-177" value="" style="rounded=0;whiteSpace=wrap;html=1;points=[];fillColor=#FFE599;fillOpacity=20;" parent="1" vertex="1">
          <mxGeometry x="320" y="470" width="50" height="40" as="geometry" />
        </mxCell>
        <mxCell id="QGvBPcfqkOfmn8XZEpkV-178" value="" style="rounded=0;whiteSpace=wrap;html=1;points=[];fillColor=#FFE599;fillOpacity=20;" parent="1" vertex="1">
          <mxGeometry x="370" y="470" width="50" height="40" as="geometry" />
        </mxCell>
        <mxCell id="QGvBPcfqkOfmn8XZEpkV-179" value="" style="rounded=0;whiteSpace=wrap;html=1;points=[];fillColor=#FFE599;fillOpacity=20;" parent="1" vertex="1">
          <mxGeometry x="420" y="470" width="50" height="40" as="geometry" />
        </mxCell>
        <mxCell id="QGvBPcfqkOfmn8XZEpkV-180" value="" style="rounded=0;whiteSpace=wrap;html=1;points=[];fillColor=#FFE599;fillOpacity=20;" parent="1" vertex="1">
          <mxGeometry x="470" y="470" width="50" height="40" as="geometry" />
        </mxCell>
        <mxCell id="QGvBPcfqkOfmn8XZEpkV-181" value="" style="rounded=0;whiteSpace=wrap;html=1;points=[];fillColor=#FFE599;fillOpacity=20;" parent="1" vertex="1">
          <mxGeometry x="520" y="470" width="50" height="40" as="geometry" />
        </mxCell>
        <mxCell id="QGvBPcfqkOfmn8XZEpkV-182" value="" style="rounded=0;whiteSpace=wrap;html=1;points=[];fillColor=#FFE599;fillOpacity=20;" parent="1" vertex="1">
          <mxGeometry x="570" y="470" width="50" height="40" as="geometry" />
        </mxCell>
        <mxCell id="QGvBPcfqkOfmn8XZEpkV-183" value="" style="rounded=0;whiteSpace=wrap;html=1;points=[];fillColor=#FFE599;fillOpacity=20;" parent="1" vertex="1">
          <mxGeometry x="620" y="470" width="50" height="40" as="geometry" />
        </mxCell>
        <mxCell id="QGvBPcfqkOfmn8XZEpkV-184" value="" style="rounded=0;whiteSpace=wrap;html=1;points=[];fillColor=#FFE599;fillOpacity=20;" parent="1" vertex="1">
          <mxGeometry x="670" y="470" width="50" height="40" as="geometry" />
        </mxCell>
        <mxCell id="QGvBPcfqkOfmn8XZEpkV-185" value="" style="rounded=0;whiteSpace=wrap;html=1;points=[];fillColor=#FFE599;fillOpacity=20;" parent="1" vertex="1">
          <mxGeometry x="720" y="470" width="50" height="40" as="geometry" />
        </mxCell>
        <mxCell id="QGvBPcfqkOfmn8XZEpkV-186" value="" style="rounded=0;whiteSpace=wrap;html=1;points=[];fillColor=#FFE599;fillOpacity=20;" parent="1" vertex="1">
          <mxGeometry x="770" y="470" width="50" height="40" as="geometry" />
        </mxCell>
        <mxCell id="QGvBPcfqkOfmn8XZEpkV-187" value="" style="rounded=0;whiteSpace=wrap;html=1;points=[];fillColor=#FFE599;fillOpacity=20;" parent="1" vertex="1">
          <mxGeometry x="820" y="470" width="50" height="40" as="geometry" />
        </mxCell>
        <mxCell id="QGvBPcfqkOfmn8XZEpkV-188" value="" style="rounded=0;whiteSpace=wrap;html=1;points=[];fillColor=#FFE599;fillOpacity=20;" parent="1" vertex="1">
          <mxGeometry x="70" y="510" width="50" height="40" as="geometry" />
        </mxCell>
        <mxCell id="QGvBPcfqkOfmn8XZEpkV-189" value="" style="rounded=0;whiteSpace=wrap;html=1;points=[];fillColor=#FFE599;fillOpacity=20;" parent="1" vertex="1">
          <mxGeometry x="120" y="510" width="50" height="40" as="geometry" />
        </mxCell>
        <mxCell id="QGvBPcfqkOfmn8XZEpkV-190" value="" style="rounded=0;whiteSpace=wrap;html=1;points=[];fillColor=#FFE599;fillOpacity=20;" parent="1" vertex="1">
          <mxGeometry x="170" y="510" width="50" height="40" as="geometry" />
        </mxCell>
        <mxCell id="QGvBPcfqkOfmn8XZEpkV-191" value="" style="rounded=0;whiteSpace=wrap;html=1;points=[];fillColor=#FFE599;fillOpacity=20;" parent="1" vertex="1">
          <mxGeometry x="220" y="510" width="50" height="40" as="geometry" />
        </mxCell>
        <mxCell id="QGvBPcfqkOfmn8XZEpkV-192" value="" style="rounded=0;whiteSpace=wrap;html=1;points=[];fillColor=#FFE599;fillOpacity=20;" parent="1" vertex="1">
          <mxGeometry x="270" y="510" width="50" height="40" as="geometry" />
        </mxCell>
        <mxCell id="QGvBPcfqkOfmn8XZEpkV-193" value="" style="rounded=0;whiteSpace=wrap;html=1;points=[];fillColor=#FFE599;fillOpacity=20;" parent="1" vertex="1">
          <mxGeometry x="320" y="510" width="50" height="40" as="geometry" />
        </mxCell>
        <mxCell id="QGvBPcfqkOfmn8XZEpkV-194" value="" style="rounded=0;whiteSpace=wrap;html=1;points=[];fillColor=#FFE599;fillOpacity=20;" parent="1" vertex="1">
          <mxGeometry x="370" y="510" width="50" height="40" as="geometry" />
        </mxCell>
        <mxCell id="QGvBPcfqkOfmn8XZEpkV-195" value="" style="rounded=0;whiteSpace=wrap;html=1;points=[];fillColor=#FFE599;fillOpacity=20;" parent="1" vertex="1">
          <mxGeometry x="420" y="510" width="50" height="40" as="geometry" />
        </mxCell>
        <mxCell id="QGvBPcfqkOfmn8XZEpkV-196" value="" style="rounded=0;whiteSpace=wrap;html=1;points=[];fillColor=#FFE599;fillOpacity=20;" parent="1" vertex="1">
          <mxGeometry x="470" y="510" width="50" height="40" as="geometry" />
        </mxCell>
        <mxCell id="QGvBPcfqkOfmn8XZEpkV-197" value="" style="rounded=0;whiteSpace=wrap;html=1;points=[];fillColor=#FFE599;fillOpacity=20;" parent="1" vertex="1">
          <mxGeometry x="520" y="510" width="50" height="40" as="geometry" />
        </mxCell>
        <mxCell id="QGvBPcfqkOfmn8XZEpkV-198" value="" style="rounded=0;whiteSpace=wrap;html=1;points=[];fillColor=#FFE599;fillOpacity=20;" parent="1" vertex="1">
          <mxGeometry x="570" y="510" width="50" height="40" as="geometry" />
        </mxCell>
        <mxCell id="QGvBPcfqkOfmn8XZEpkV-199" value="" style="rounded=0;whiteSpace=wrap;html=1;points=[];fillColor=#FFE599;fillOpacity=20;" parent="1" vertex="1">
          <mxGeometry x="620" y="510" width="50" height="40" as="geometry" />
        </mxCell>
        <mxCell id="QGvBPcfqkOfmn8XZEpkV-200" value="" style="rounded=0;whiteSpace=wrap;html=1;points=[];fillColor=#FFE599;fillOpacity=20;" parent="1" vertex="1">
          <mxGeometry x="670" y="510" width="50" height="40" as="geometry" />
        </mxCell>
        <mxCell id="QGvBPcfqkOfmn8XZEpkV-201" value="" style="rounded=0;whiteSpace=wrap;html=1;points=[];fillColor=#FFE599;fillOpacity=20;" parent="1" vertex="1">
          <mxGeometry x="720" y="510" width="50" height="40" as="geometry" />
        </mxCell>
        <mxCell id="QGvBPcfqkOfmn8XZEpkV-202" value="" style="rounded=0;whiteSpace=wrap;html=1;points=[];fillColor=#FFE599;fillOpacity=20;" parent="1" vertex="1">
          <mxGeometry x="770" y="510" width="50" height="40" as="geometry" />
        </mxCell>
        <mxCell id="QGvBPcfqkOfmn8XZEpkV-203" value="" style="rounded=0;whiteSpace=wrap;html=1;points=[];fillColor=#FFE599;fillOpacity=20;" parent="1" vertex="1">
          <mxGeometry x="820" y="510" width="50" height="40" as="geometry" />
        </mxCell>
        <mxCell id="QGvBPcfqkOfmn8XZEpkV-204" value="" style="rounded=0;whiteSpace=wrap;html=1;points=[];fillColor=#FFE599;fillOpacity=20;" parent="1" vertex="1">
          <mxGeometry x="70" y="550" width="50" height="40" as="geometry" />
        </mxCell>
        <mxCell id="QGvBPcfqkOfmn8XZEpkV-205" value="" style="rounded=0;whiteSpace=wrap;html=1;points=[];fillColor=#FFE599;fillOpacity=20;" parent="1" vertex="1">
          <mxGeometry x="120" y="550" width="50" height="40" as="geometry" />
        </mxCell>
        <mxCell id="QGvBPcfqkOfmn8XZEpkV-206" value="" style="rounded=0;whiteSpace=wrap;html=1;points=[];fillColor=#FFE599;fillOpacity=20;" parent="1" vertex="1">
          <mxGeometry x="170" y="550" width="50" height="40" as="geometry" />
        </mxCell>
        <mxCell id="QGvBPcfqkOfmn8XZEpkV-207" value="" style="rounded=0;whiteSpace=wrap;html=1;points=[];fillColor=#FFE599;fillOpacity=20;" parent="1" vertex="1">
          <mxGeometry x="220" y="550" width="50" height="40" as="geometry" />
        </mxCell>
        <mxCell id="QGvBPcfqkOfmn8XZEpkV-208" value="" style="rounded=0;whiteSpace=wrap;html=1;points=[];fillColor=#FFE599;fillOpacity=20;" parent="1" vertex="1">
          <mxGeometry x="270" y="550" width="50" height="40" as="geometry" />
        </mxCell>
        <mxCell id="QGvBPcfqkOfmn8XZEpkV-209" value="" style="rounded=0;whiteSpace=wrap;html=1;points=[];fillColor=#FFE599;fillOpacity=20;" parent="1" vertex="1">
          <mxGeometry x="320" y="550" width="50" height="40" as="geometry" />
        </mxCell>
        <mxCell id="QGvBPcfqkOfmn8XZEpkV-210" value="" style="rounded=0;whiteSpace=wrap;html=1;points=[];fillColor=#FFE599;fillOpacity=20;" parent="1" vertex="1">
          <mxGeometry x="370" y="550" width="50" height="40" as="geometry" />
        </mxCell>
        <mxCell id="QGvBPcfqkOfmn8XZEpkV-211" value="" style="rounded=0;whiteSpace=wrap;html=1;points=[];fillColor=#FFE599;fillOpacity=20;" parent="1" vertex="1">
          <mxGeometry x="420" y="550" width="50" height="40" as="geometry" />
        </mxCell>
        <mxCell id="QGvBPcfqkOfmn8XZEpkV-212" value="" style="rounded=0;whiteSpace=wrap;html=1;points=[];fillColor=#FFE599;fillOpacity=20;" parent="1" vertex="1">
          <mxGeometry x="470" y="550" width="50" height="40" as="geometry" />
        </mxCell>
        <mxCell id="QGvBPcfqkOfmn8XZEpkV-213" value="" style="rounded=0;whiteSpace=wrap;html=1;points=[];fillColor=#FFE599;fillOpacity=20;" parent="1" vertex="1">
          <mxGeometry x="520" y="550" width="50" height="40" as="geometry" />
        </mxCell>
        <mxCell id="QGvBPcfqkOfmn8XZEpkV-214" value="" style="rounded=0;whiteSpace=wrap;html=1;points=[];fillColor=#FFE599;fillOpacity=20;" parent="1" vertex="1">
          <mxGeometry x="570" y="550" width="50" height="40" as="geometry" />
        </mxCell>
        <mxCell id="QGvBPcfqkOfmn8XZEpkV-215" value="" style="rounded=0;whiteSpace=wrap;html=1;points=[];fillColor=#FFE599;fillOpacity=20;" parent="1" vertex="1">
          <mxGeometry x="620" y="550" width="50" height="40" as="geometry" />
        </mxCell>
        <mxCell id="QGvBPcfqkOfmn8XZEpkV-216" value="" style="rounded=0;whiteSpace=wrap;html=1;points=[];fillColor=#FFE599;fillOpacity=20;" parent="1" vertex="1">
          <mxGeometry x="670" y="550" width="50" height="40" as="geometry" />
        </mxCell>
        <mxCell id="QGvBPcfqkOfmn8XZEpkV-217" value="" style="rounded=0;whiteSpace=wrap;html=1;points=[];fillColor=#FFE599;fillOpacity=20;" parent="1" vertex="1">
          <mxGeometry x="720" y="550" width="50" height="40" as="geometry" />
        </mxCell>
        <mxCell id="QGvBPcfqkOfmn8XZEpkV-218" value="" style="rounded=0;whiteSpace=wrap;html=1;points=[];fillColor=#FFE599;fillOpacity=20;" parent="1" vertex="1">
          <mxGeometry x="770" y="550" width="50" height="40" as="geometry" />
        </mxCell>
        <mxCell id="QGvBPcfqkOfmn8XZEpkV-219" value="" style="rounded=0;whiteSpace=wrap;html=1;points=[];fillColor=#FFE599;fillOpacity=20;" parent="1" vertex="1">
          <mxGeometry x="820" y="550" width="50" height="40" as="geometry" />
        </mxCell>
        <mxCell id="QGvBPcfqkOfmn8XZEpkV-220" value="2" style="rounded=0;whiteSpace=wrap;html=1;points=[];fillColor=#CCCCCC;fillOpacity=20;" parent="1" vertex="1">
          <mxGeometry x="70" y="590" width="50" height="40" as="geometry" />
        </mxCell>
        <mxCell id="QGvBPcfqkOfmn8XZEpkV-221" value="2" style="rounded=0;whiteSpace=wrap;html=1;points=[];fillColor=#CCCCCC;fillOpacity=20;" parent="1" vertex="1">
          <mxGeometry x="120" y="590" width="50" height="40" as="geometry" />
        </mxCell>
        <mxCell id="QGvBPcfqkOfmn8XZEpkV-222" value="2" style="rounded=0;whiteSpace=wrap;html=1;points=[];fillColor=#A9C4EB;fillOpacity=20;" parent="1" vertex="1">
          <mxGeometry x="170" y="590" width="50" height="40" as="geometry" />
        </mxCell>
        <mxCell id="QGvBPcfqkOfmn8XZEpkV-223" value="2" style="rounded=0;whiteSpace=wrap;html=1;points=[];fillColor=#A9C4EB;fillOpacity=20;" parent="1" vertex="1">
          <mxGeometry x="220" y="590" width="50" height="40" as="geometry" />
        </mxCell>
        <mxCell id="QGvBPcfqkOfmn8XZEpkV-224" value="2" style="rounded=0;whiteSpace=wrap;html=1;points=[];fillColor=#A9C4EB;fillOpacity=20;" parent="1" vertex="1">
          <mxGeometry x="270" y="590" width="50" height="40" as="geometry" />
        </mxCell>
        <mxCell id="QGvBPcfqkOfmn8XZEpkV-225" value="2" style="rounded=0;whiteSpace=wrap;html=1;points=[];fillColor=#A9C4EB;fillOpacity=20;" parent="1" vertex="1">
          <mxGeometry x="320" y="590" width="50" height="40" as="geometry" />
        </mxCell>
        <mxCell id="QGvBPcfqkOfmn8XZEpkV-226" value="2" style="rounded=0;whiteSpace=wrap;html=1;points=[];fillColor=#A9C4EB;fillOpacity=20;" parent="1" vertex="1">
          <mxGeometry x="370" y="590" width="50" height="40" as="geometry" />
        </mxCell>
        <mxCell id="QGvBPcfqkOfmn8XZEpkV-227" value="2" style="rounded=0;whiteSpace=wrap;html=1;points=[];fillColor=#A9C4EB;fillOpacity=20;" parent="1" vertex="1">
          <mxGeometry x="420" y="590" width="50" height="40" as="geometry" />
        </mxCell>
        <mxCell id="QGvBPcfqkOfmn8XZEpkV-228" value="2" style="rounded=0;whiteSpace=wrap;html=1;points=[];fillColor=#A9C4EB;fillOpacity=20;" parent="1" vertex="1">
          <mxGeometry x="470" y="590" width="50" height="40" as="geometry" />
        </mxCell>
        <mxCell id="QGvBPcfqkOfmn8XZEpkV-229" value="2" style="rounded=0;whiteSpace=wrap;html=1;points=[];fillColor=#A9C4EB;fillOpacity=20;" parent="1" vertex="1">
          <mxGeometry x="520" y="590" width="50" height="40" as="geometry" />
        </mxCell>
        <mxCell id="QGvBPcfqkOfmn8XZEpkV-230" value="2" style="rounded=0;whiteSpace=wrap;html=1;points=[];fillColor=#A9C4EB;fillOpacity=20;" parent="1" vertex="1">
          <mxGeometry x="570" y="590" width="50" height="40" as="geometry" />
        </mxCell>
        <mxCell id="QGvBPcfqkOfmn8XZEpkV-231" value="2" style="rounded=0;whiteSpace=wrap;html=1;points=[];fillColor=#A9C4EB;fillOpacity=20;" parent="1" vertex="1">
          <mxGeometry x="620" y="590" width="50" height="40" as="geometry" />
        </mxCell>
        <mxCell id="QGvBPcfqkOfmn8XZEpkV-232" value="2" style="rounded=0;whiteSpace=wrap;html=1;points=[];fillColor=#A9C4EB;fillOpacity=20;" parent="1" vertex="1">
          <mxGeometry x="670" y="590" width="50" height="40" as="geometry" />
        </mxCell>
        <mxCell id="QGvBPcfqkOfmn8XZEpkV-233" value="2" style="rounded=0;whiteSpace=wrap;html=1;points=[];fillColor=#A9C4EB;fillOpacity=20;" parent="1" vertex="1">
          <mxGeometry x="720" y="590" width="50" height="40" as="geometry" />
        </mxCell>
        <mxCell id="QGvBPcfqkOfmn8XZEpkV-234" value="2" style="rounded=0;whiteSpace=wrap;html=1;points=[];fillColor=#A9C4EB;fillOpacity=20;" parent="1" vertex="1">
          <mxGeometry x="770" y="590" width="50" height="40" as="geometry" />
        </mxCell>
        <mxCell id="QGvBPcfqkOfmn8XZEpkV-235" value="2" style="rounded=0;whiteSpace=wrap;html=1;points=[];fillColor=#A9C4EB;fillOpacity=20;" parent="1" vertex="1">
          <mxGeometry x="820" y="590" width="50" height="40" as="geometry" />
        </mxCell>
        <mxCell id="QGvBPcfqkOfmn8XZEpkV-236" value="2" style="rounded=0;whiteSpace=wrap;html=1;points=[];fillColor=#A9C4EB;fillOpacity=20;" parent="1" vertex="1">
          <mxGeometry x="70" y="630" width="50" height="40" as="geometry" />
        </mxCell>
        <mxCell id="QGvBPcfqkOfmn8XZEpkV-237" value="2" style="rounded=0;whiteSpace=wrap;html=1;points=[];fillColor=#A9C4EB;fillOpacity=20;" parent="1" vertex="1">
          <mxGeometry x="120" y="630" width="50" height="40" as="geometry" />
        </mxCell>
        <mxCell id="QGvBPcfqkOfmn8XZEpkV-238" value="2" style="rounded=0;whiteSpace=wrap;html=1;points=[];fillColor=#A9C4EB;fillOpacity=20;" parent="1" vertex="1">
          <mxGeometry x="170" y="630" width="50" height="40" as="geometry" />
        </mxCell>
        <mxCell id="QGvBPcfqkOfmn8XZEpkV-239" value="2" style="rounded=0;whiteSpace=wrap;html=1;points=[];fillColor=#A9C4EB;fillOpacity=20;" parent="1" vertex="1">
          <mxGeometry x="220" y="630" width="50" height="40" as="geometry" />
        </mxCell>
        <mxCell id="QGvBPcfqkOfmn8XZEpkV-240" value="2" style="rounded=0;whiteSpace=wrap;html=1;points=[];fillColor=#A9C4EB;fillOpacity=20;" parent="1" vertex="1">
          <mxGeometry x="270" y="630" width="50" height="40" as="geometry" />
        </mxCell>
        <mxCell id="QGvBPcfqkOfmn8XZEpkV-241" value="2" style="rounded=0;whiteSpace=wrap;html=1;points=[];fillColor=#A9C4EB;fillOpacity=20;" parent="1" vertex="1">
          <mxGeometry x="320" y="630" width="50" height="40" as="geometry" />
        </mxCell>
        <mxCell id="QGvBPcfqkOfmn8XZEpkV-242" value="2" style="rounded=0;whiteSpace=wrap;html=1;points=[];fillColor=#A9C4EB;fillOpacity=20;" parent="1" vertex="1">
          <mxGeometry x="370" y="630" width="50" height="40" as="geometry" />
        </mxCell>
        <mxCell id="QGvBPcfqkOfmn8XZEpkV-243" value="2" style="rounded=0;whiteSpace=wrap;html=1;points=[];fillColor=#A9C4EB;fillOpacity=20;" parent="1" vertex="1">
          <mxGeometry x="420" y="630" width="50" height="40" as="geometry" />
        </mxCell>
        <mxCell id="QGvBPcfqkOfmn8XZEpkV-244" value="2" style="rounded=0;whiteSpace=wrap;html=1;points=[];fillColor=#A9C4EB;fillOpacity=20;" parent="1" vertex="1">
          <mxGeometry x="470" y="630" width="50" height="40" as="geometry" />
        </mxCell>
        <mxCell id="QGvBPcfqkOfmn8XZEpkV-245" value="2" style="rounded=0;whiteSpace=wrap;html=1;points=[];fillColor=#A9C4EB;fillOpacity=20;" parent="1" vertex="1">
          <mxGeometry x="520" y="630" width="50" height="40" as="geometry" />
        </mxCell>
        <mxCell id="QGvBPcfqkOfmn8XZEpkV-246" value="2" style="rounded=0;whiteSpace=wrap;html=1;points=[];fillColor=#A9C4EB;fillOpacity=20;" parent="1" vertex="1">
          <mxGeometry x="570" y="630" width="50" height="40" as="geometry" />
        </mxCell>
        <mxCell id="QGvBPcfqkOfmn8XZEpkV-247" value="2" style="rounded=0;whiteSpace=wrap;html=1;points=[];fillColor=#A9C4EB;fillOpacity=20;" parent="1" vertex="1">
          <mxGeometry x="620" y="630" width="50" height="40" as="geometry" />
        </mxCell>
        <mxCell id="QGvBPcfqkOfmn8XZEpkV-248" value="2" style="rounded=0;whiteSpace=wrap;html=1;points=[];fillColor=#A9C4EB;fillOpacity=20;" parent="1" vertex="1">
          <mxGeometry x="670" y="630" width="50" height="40" as="geometry" />
        </mxCell>
        <mxCell id="QGvBPcfqkOfmn8XZEpkV-249" value="2" style="rounded=0;whiteSpace=wrap;html=1;points=[];fillColor=#A9C4EB;fillOpacity=20;" parent="1" vertex="1">
          <mxGeometry x="720" y="630" width="50" height="40" as="geometry" />
        </mxCell>
        <mxCell id="QGvBPcfqkOfmn8XZEpkV-250" value="2" style="rounded=0;whiteSpace=wrap;html=1;points=[];fillColor=#A9C4EB;fillOpacity=20;" parent="1" vertex="1">
          <mxGeometry x="770" y="630" width="50" height="40" as="geometry" />
        </mxCell>
        <mxCell id="QGvBPcfqkOfmn8XZEpkV-251" value="2" style="rounded=0;whiteSpace=wrap;html=1;points=[];fillColor=#A9C4EB;fillOpacity=20;" parent="1" vertex="1">
          <mxGeometry x="820" y="630" width="50" height="40" as="geometry" />
        </mxCell>
        <mxCell id="QGvBPcfqkOfmn8XZEpkV-252" value="3" style="rounded=0;whiteSpace=wrap;html=1;points=[];fillColor=#9AC7BF;fillOpacity=20;" parent="1" vertex="1">
          <mxGeometry x="70" y="670" width="50" height="40" as="geometry" />
        </mxCell>
        <mxCell id="QGvBPcfqkOfmn8XZEpkV-253" value="3" style="rounded=0;whiteSpace=wrap;html=1;points=[];fillColor=#9AC7BF;fillOpacity=20;" parent="1" vertex="1">
          <mxGeometry x="120" y="670" width="50" height="40" as="geometry" />
        </mxCell>
        <mxCell id="QGvBPcfqkOfmn8XZEpkV-254" value="3" style="rounded=0;whiteSpace=wrap;html=1;points=[];fillColor=#9AC7BF;fillOpacity=20;" parent="1" vertex="1">
          <mxGeometry x="170" y="670" width="50" height="40" as="geometry" />
        </mxCell>
        <mxCell id="QGvBPcfqkOfmn8XZEpkV-255" value="3" style="rounded=0;whiteSpace=wrap;html=1;points=[];fillColor=#9AC7BF;fillOpacity=20;" parent="1" vertex="1">
          <mxGeometry x="220" y="670" width="50" height="40" as="geometry" />
        </mxCell>
        <mxCell id="QGvBPcfqkOfmn8XZEpkV-256" value="3" style="rounded=0;whiteSpace=wrap;html=1;points=[];fillColor=#9AC7BF;fillOpacity=20;" parent="1" vertex="1">
          <mxGeometry x="270" y="670" width="50" height="40" as="geometry" />
        </mxCell>
        <mxCell id="QGvBPcfqkOfmn8XZEpkV-257" value="3" style="rounded=0;whiteSpace=wrap;html=1;points=[];fillColor=#9AC7BF;fillOpacity=20;" parent="1" vertex="1">
          <mxGeometry x="320" y="670" width="50" height="40" as="geometry" />
        </mxCell>
        <mxCell id="QGvBPcfqkOfmn8XZEpkV-258" value="3" style="rounded=0;whiteSpace=wrap;html=1;points=[];fillColor=#9AC7BF;fillOpacity=20;" parent="1" vertex="1">
          <mxGeometry x="370" y="670" width="50" height="40" as="geometry" />
        </mxCell>
        <mxCell id="QGvBPcfqkOfmn8XZEpkV-259" value="3" style="rounded=0;whiteSpace=wrap;html=1;points=[];fillColor=#9AC7BF;fillOpacity=20;" parent="1" vertex="1">
          <mxGeometry x="420" y="670" width="50" height="40" as="geometry" />
        </mxCell>
        <mxCell id="QGvBPcfqkOfmn8XZEpkV-260" value="3" style="rounded=0;whiteSpace=wrap;html=1;points=[];fillColor=#9AC7BF;fillOpacity=20;" parent="1" vertex="1">
          <mxGeometry x="470" y="670" width="50" height="40" as="geometry" />
        </mxCell>
        <mxCell id="QGvBPcfqkOfmn8XZEpkV-261" value="3" style="rounded=0;whiteSpace=wrap;html=1;points=[];fillColor=#9AC7BF;fillOpacity=20;" parent="1" vertex="1">
          <mxGeometry x="520" y="670" width="50" height="40" as="geometry" />
        </mxCell>
        <mxCell id="QGvBPcfqkOfmn8XZEpkV-262" value="3" style="rounded=0;whiteSpace=wrap;html=1;points=[];fillColor=#9AC7BF;fillOpacity=20;" parent="1" vertex="1">
          <mxGeometry x="570" y="670" width="50" height="40" as="geometry" />
        </mxCell>
        <mxCell id="QGvBPcfqkOfmn8XZEpkV-263" value="3" style="rounded=0;whiteSpace=wrap;html=1;points=[];fillColor=#9AC7BF;fillOpacity=20;" parent="1" vertex="1">
          <mxGeometry x="620" y="670" width="50" height="40" as="geometry" />
        </mxCell>
        <mxCell id="QGvBPcfqkOfmn8XZEpkV-264" value="3" style="rounded=0;whiteSpace=wrap;html=1;points=[];fillColor=#9AC7BF;fillOpacity=20;" parent="1" vertex="1">
          <mxGeometry x="670" y="670" width="50" height="40" as="geometry" />
        </mxCell>
        <mxCell id="QGvBPcfqkOfmn8XZEpkV-265" value="3" style="rounded=0;whiteSpace=wrap;html=1;points=[];fillColor=#9AC7BF;fillOpacity=20;" parent="1" vertex="1">
          <mxGeometry x="720" y="670" width="50" height="40" as="geometry" />
        </mxCell>
        <mxCell id="QGvBPcfqkOfmn8XZEpkV-266" value="3" style="rounded=0;whiteSpace=wrap;html=1;points=[];fillColor=#9AC7BF;fillOpacity=20;" parent="1" vertex="1">
          <mxGeometry x="770" y="670" width="50" height="40" as="geometry" />
        </mxCell>
        <mxCell id="QGvBPcfqkOfmn8XZEpkV-267" value="3" style="rounded=0;whiteSpace=wrap;html=1;points=[];fillColor=#9AC7BF;fillOpacity=20;" parent="1" vertex="1">
          <mxGeometry x="820" y="670" width="50" height="40" as="geometry" />
        </mxCell>
        <mxCell id="QGvBPcfqkOfmn8XZEpkV-268" value="4" style="rounded=0;whiteSpace=wrap;html=1;points=[];fillColor=none;fillOpacity=20;" parent="1" vertex="1">
          <mxGeometry x="70" y="710" width="50" height="40" as="geometry" />
        </mxCell>
        <mxCell id="QGvBPcfqkOfmn8XZEpkV-269" value="4" style="rounded=0;whiteSpace=wrap;html=1;points=[];fillColor=none;fillOpacity=20;" parent="1" vertex="1">
          <mxGeometry x="120" y="710" width="50" height="40" as="geometry" />
        </mxCell>
        <mxCell id="QGvBPcfqkOfmn8XZEpkV-270" value="4" style="rounded=0;whiteSpace=wrap;html=1;points=[];fillColor=none;fillOpacity=20;" parent="1" vertex="1">
          <mxGeometry x="170" y="710" width="50" height="40" as="geometry" />
        </mxCell>
        <mxCell id="QGvBPcfqkOfmn8XZEpkV-271" value="4" style="rounded=0;whiteSpace=wrap;html=1;points=[];fillColor=none;fillOpacity=20;" parent="1" vertex="1">
          <mxGeometry x="220" y="710" width="50" height="40" as="geometry" />
        </mxCell>
        <mxCell id="QGvBPcfqkOfmn8XZEpkV-272" value="4" style="rounded=0;whiteSpace=wrap;html=1;points=[];fillColor=none;fillOpacity=20;" parent="1" vertex="1">
          <mxGeometry x="270" y="710" width="50" height="40" as="geometry" />
        </mxCell>
        <mxCell id="QGvBPcfqkOfmn8XZEpkV-273" value="4" style="rounded=0;whiteSpace=wrap;html=1;points=[];fillColor=#CCCCCC;fillOpacity=20;" parent="1" vertex="1">
          <mxGeometry x="320" y="710" width="50" height="40" as="geometry" />
        </mxCell>
        <mxCell id="QGvBPcfqkOfmn8XZEpkV-274" value="4" style="rounded=0;whiteSpace=wrap;html=1;points=[];fillColor=#CCCCCC;fillOpacity=20;" parent="1" vertex="1">
          <mxGeometry x="370" y="710" width="50" height="40" as="geometry" />
        </mxCell>
        <mxCell id="QGvBPcfqkOfmn8XZEpkV-275" value="4" style="rounded=0;whiteSpace=wrap;html=1;points=[];fillColor=#CCCCCC;fillOpacity=20;" parent="1" vertex="1">
          <mxGeometry x="420" y="710" width="50" height="40" as="geometry" />
        </mxCell>
        <mxCell id="QGvBPcfqkOfmn8XZEpkV-276" value="5" style="rounded=0;whiteSpace=wrap;html=1;points=[];fillColor=#CCCCCC;fillOpacity=20;" parent="1" vertex="1">
          <mxGeometry x="470" y="710" width="50" height="40" as="geometry" />
        </mxCell>
        <mxCell id="QGvBPcfqkOfmn8XZEpkV-277" value="5" style="rounded=0;whiteSpace=wrap;html=1;points=[];fillColor=#CCCCCC;fillOpacity=20;" parent="1" vertex="1">
          <mxGeometry x="520" y="710" width="50" height="40" as="geometry" />
        </mxCell>
        <mxCell id="QGvBPcfqkOfmn8XZEpkV-278" value="5" style="rounded=0;whiteSpace=wrap;html=1;points=[];fillColor=#CCCCCC;fillOpacity=20;" parent="1" vertex="1">
          <mxGeometry x="570" y="710" width="50" height="40" as="geometry" />
        </mxCell>
        <mxCell id="QGvBPcfqkOfmn8XZEpkV-279" value="5" style="rounded=0;whiteSpace=wrap;html=1;points=[];fillColor=#CCCCCC;fillOpacity=20;" parent="1" vertex="1">
          <mxGeometry x="620" y="710" width="50" height="40" as="geometry" />
        </mxCell>
        <mxCell id="QGvBPcfqkOfmn8XZEpkV-280" value="6" style="rounded=0;whiteSpace=wrap;html=1;points=[];fillColor=#CCCCCC;fillOpacity=20;" parent="1" vertex="1">
          <mxGeometry x="670" y="710" width="50" height="40" as="geometry" />
        </mxCell>
        <mxCell id="QGvBPcfqkOfmn8XZEpkV-281" value="6" style="rounded=0;whiteSpace=wrap;html=1;points=[];fillColor=#CCCCCC;fillOpacity=20;" parent="1" vertex="1">
          <mxGeometry x="720" y="710" width="50" height="40" as="geometry" />
        </mxCell>
        <mxCell id="QGvBPcfqkOfmn8XZEpkV-282" value="" style="rounded=0;whiteSpace=wrap;html=1;points=[];fillColor=#CCCCCC;fillOpacity=20;" parent="1" vertex="1">
          <mxGeometry x="770" y="710" width="50" height="40" as="geometry" />
        </mxCell>
        <mxCell id="QGvBPcfqkOfmn8XZEpkV-283" value="" style="rounded=0;whiteSpace=wrap;html=1;points=[];fillColor=#CCCCCC;fillOpacity=20;" parent="1" vertex="1">
          <mxGeometry x="820" y="710" width="50" height="40" as="geometry" />
        </mxCell>
        <mxCell id="QGvBPcfqkOfmn8XZEpkV-284" value="0200&lt;br&gt;0x80" style="text;strokeColor=none;align=center;fillColor=none;html=1;verticalAlign=middle;whiteSpace=wrap;rounded=0;" parent="1" vertex="1">
          <mxGeometry x="20" y="435" width="50" height="30" as="geometry" />
        </mxCell>
        <mxCell id="QGvBPcfqkOfmn8XZEpkV-285" value="0220&lt;br&gt;0x90" style="text;strokeColor=none;align=center;fillColor=none;html=1;verticalAlign=middle;whiteSpace=wrap;rounded=0;" parent="1" vertex="1">
          <mxGeometry x="20" y="475" width="50" height="30" as="geometry" />
        </mxCell>
        <mxCell id="QGvBPcfqkOfmn8XZEpkV-286" value="0240&lt;br&gt;0xA0" style="text;strokeColor=none;align=center;fillColor=none;html=1;verticalAlign=middle;whiteSpace=wrap;rounded=0;" parent="1" vertex="1">
          <mxGeometry x="20" y="515" width="50" height="30" as="geometry" />
        </mxCell>
        <mxCell id="QGvBPcfqkOfmn8XZEpkV-287" value="0260&lt;br&gt;0xB0" style="text;strokeColor=none;align=center;fillColor=none;html=1;verticalAlign=middle;whiteSpace=wrap;rounded=0;" parent="1" vertex="1">
          <mxGeometry x="20" y="555" width="50" height="30" as="geometry" />
        </mxCell>
        <mxCell id="QGvBPcfqkOfmn8XZEpkV-288" value="0300&lt;br&gt;0xC0" style="text;strokeColor=none;align=center;fillColor=none;html=1;verticalAlign=middle;whiteSpace=wrap;rounded=0;" parent="1" vertex="1">
          <mxGeometry x="20" y="595" width="50" height="30" as="geometry" />
        </mxCell>
        <mxCell id="QGvBPcfqkOfmn8XZEpkV-289" value="0320&lt;br&gt;0xD0" style="text;strokeColor=none;align=center;fillColor=none;html=1;verticalAlign=middle;whiteSpace=wrap;rounded=0;" parent="1" vertex="1">
          <mxGeometry x="20" y="635" width="50" height="30" as="geometry" />
        </mxCell>
        <mxCell id="QGvBPcfqkOfmn8XZEpkV-290" value="0340&lt;br&gt;0xE0" style="text;strokeColor=none;align=center;fillColor=none;html=1;verticalAlign=middle;whiteSpace=wrap;rounded=0;" parent="1" vertex="1">
          <mxGeometry x="20" y="675" width="50" height="30" as="geometry" />
        </mxCell>
        <mxCell id="QGvBPcfqkOfmn8XZEpkV-291" value="0360&lt;br&gt;0xF0" style="text;strokeColor=none;align=center;fillColor=none;html=1;verticalAlign=middle;whiteSpace=wrap;rounded=0;" parent="1" vertex="1">
          <mxGeometry x="20" y="715" width="50" height="30" as="geometry" />
        </mxCell>
        <mxCell id="QGvBPcfqkOfmn8XZEpkV-292" value="000&lt;br&gt;0x00" style="text;strokeColor=none;align=center;fillColor=none;html=1;verticalAlign=middle;whiteSpace=wrap;rounded=0;" parent="1" vertex="1">
          <mxGeometry x="71" y="397" width="50" height="30" as="geometry" />
        </mxCell>
        <mxCell id="QGvBPcfqkOfmn8XZEpkV-293" value="001&lt;br&gt;0x01" style="text;strokeColor=none;align=center;fillColor=none;html=1;verticalAlign=middle;whiteSpace=wrap;rounded=0;" parent="1" vertex="1">
          <mxGeometry x="121" y="397" width="50" height="30" as="geometry" />
        </mxCell>
        <mxCell id="QGvBPcfqkOfmn8XZEpkV-294" value="002&lt;br&gt;0x02" style="text;strokeColor=none;align=center;fillColor=none;html=1;verticalAlign=middle;whiteSpace=wrap;rounded=0;" parent="1" vertex="1">
          <mxGeometry x="170" y="397" width="50" height="30" as="geometry" />
        </mxCell>
        <mxCell id="QGvBPcfqkOfmn8XZEpkV-295" value="003&lt;br&gt;0x03" style="text;strokeColor=none;align=center;fillColor=none;html=1;verticalAlign=middle;whiteSpace=wrap;rounded=0;" parent="1" vertex="1">
          <mxGeometry x="220" y="397" width="50" height="30" as="geometry" />
        </mxCell>
        <mxCell id="QGvBPcfqkOfmn8XZEpkV-296" value="004&lt;br&gt;0x04" style="text;strokeColor=none;align=center;fillColor=none;html=1;verticalAlign=middle;whiteSpace=wrap;rounded=0;" parent="1" vertex="1">
          <mxGeometry x="270" y="397" width="50" height="30" as="geometry" />
        </mxCell>
        <mxCell id="QGvBPcfqkOfmn8XZEpkV-297" value="005&lt;br&gt;0x05" style="text;strokeColor=none;align=center;fillColor=none;html=1;verticalAlign=middle;whiteSpace=wrap;rounded=0;" parent="1" vertex="1">
          <mxGeometry x="320" y="397" width="50" height="30" as="geometry" />
        </mxCell>
        <mxCell id="QGvBPcfqkOfmn8XZEpkV-298" value="006&lt;br&gt;0x06" style="text;strokeColor=none;align=center;fillColor=none;html=1;verticalAlign=middle;whiteSpace=wrap;rounded=0;" parent="1" vertex="1">
          <mxGeometry x="369" y="397" width="50" height="30" as="geometry" />
        </mxCell>
        <mxCell id="QGvBPcfqkOfmn8XZEpkV-299" value="007&lt;br&gt;0x07" style="text;strokeColor=none;align=center;fillColor=none;html=1;verticalAlign=middle;whiteSpace=wrap;rounded=0;" parent="1" vertex="1">
          <mxGeometry x="419" y="397" width="50" height="30" as="geometry" />
        </mxCell>
        <mxCell id="QGvBPcfqkOfmn8XZEpkV-300" value="010&lt;br&gt;0x08" style="text;strokeColor=none;align=center;fillColor=none;html=1;verticalAlign=middle;whiteSpace=wrap;rounded=0;" parent="1" vertex="1">
          <mxGeometry x="472" y="397" width="50" height="30" as="geometry" />
        </mxCell>
        <mxCell id="QGvBPcfqkOfmn8XZEpkV-301" value="011&lt;br&gt;0x09" style="text;strokeColor=none;align=center;fillColor=none;html=1;verticalAlign=middle;whiteSpace=wrap;rounded=0;" parent="1" vertex="1">
          <mxGeometry x="522" y="397" width="50" height="30" as="geometry" />
        </mxCell>
        <mxCell id="QGvBPcfqkOfmn8XZEpkV-302" value="012&lt;br&gt;0x0A" style="text;strokeColor=none;align=center;fillColor=none;html=1;verticalAlign=middle;whiteSpace=wrap;rounded=0;" parent="1" vertex="1">
          <mxGeometry x="571" y="397" width="50" height="30" as="geometry" />
        </mxCell>
        <mxCell id="QGvBPcfqkOfmn8XZEpkV-303" value="013&lt;br&gt;0x0B" style="text;strokeColor=none;align=center;fillColor=none;html=1;verticalAlign=middle;whiteSpace=wrap;rounded=0;" parent="1" vertex="1">
          <mxGeometry x="621" y="397" width="50" height="30" as="geometry" />
        </mxCell>
        <mxCell id="QGvBPcfqkOfmn8XZEpkV-304" value="014&lt;br&gt;0x0C" style="text;strokeColor=none;align=center;fillColor=none;html=1;verticalAlign=middle;whiteSpace=wrap;rounded=0;" parent="1" vertex="1">
          <mxGeometry x="671" y="397" width="50" height="30" as="geometry" />
        </mxCell>
        <mxCell id="QGvBPcfqkOfmn8XZEpkV-305" value="015&lt;br&gt;0x0D" style="text;strokeColor=none;align=center;fillColor=none;html=1;verticalAlign=middle;whiteSpace=wrap;rounded=0;" parent="1" vertex="1">
          <mxGeometry x="721" y="397" width="50" height="30" as="geometry" />
        </mxCell>
        <mxCell id="QGvBPcfqkOfmn8XZEpkV-306" value="016&lt;br&gt;0x0E" style="text;strokeColor=none;align=center;fillColor=none;html=1;verticalAlign=middle;whiteSpace=wrap;rounded=0;" parent="1" vertex="1">
          <mxGeometry x="770" y="397" width="50" height="30" as="geometry" />
        </mxCell>
        <mxCell id="QGvBPcfqkOfmn8XZEpkV-307" value="017&lt;br&gt;0x0F" style="text;strokeColor=none;align=center;fillColor=none;html=1;verticalAlign=middle;whiteSpace=wrap;rounded=0;" parent="1" vertex="1">
          <mxGeometry x="820" y="397" width="50" height="30" as="geometry" />
        </mxCell>
      </root>
    </mxGraphModel>
  </diagram>
</mxfile>
